<?xml version="1.0" encoding="utf-8"?>
<!-- Generator: Adobe Illustrator 18.1.0, SVG Export Plug-In . SVG Version: 6.00 Build 0)  -->
<!DOCTYPE svg PUBLIC "-//W3C//DTD SVG 1.1//EN" "http://www.w3.org/Graphics/SVG/1.1/DTD/svg11.dtd">
<svg version="1.1" id="Ebene_1" xmlns="http://www.w3.org/2000/svg" xmlns:xlink="http://www.w3.org/1999/xlink" x="0px" y="0px" 
     viewBox="0 0 40 40" enable-background="new 0 0 40 40" xml:space="preserve">
    <g>
        <path style="fill:none;stroke:#696969;stroke-width:2;" d="M3.1,29.9c0,0.1,0.1,0.2,0.2,0.2h33.7c0.1,0,0.2-0.1,0.2-0.2V9.1
            c0-0.1-0.1-0.2-0.2-0.2H3.3C3.2,8.9,3.1,9,3.1,9.1V29.9z"/>
    </g>
    <path style="fill:#696969;" d="M32.8,24.4c0,0.6,0.4,1,1,1s0.9-0.4,0.9-1c0-0.6-0.4-1-0.9-1C33.3,23.4,32.8,23.8,32.8,24.4
         M33.4,22h0.9l0.1-6.2v-1.5h-1.3v1.5L33.4,22z M23.1,24c0.7,0.7,1.8,1.5,3.4,1.5c1.9,0,3.4-1.2,3.4-3c0-1.5-1-2.4-2.2-2.7l0,0
        c1.2-0.4,1.9-1.2,1.9-2.5c0-1.6-1.3-2.7-3.1-2.7c-1.2,0-2.2,0.6-3,1.3l0.7,0.9c0.6-0.6,1.3-1,2.2-1c1,0,1.8,0.6,1.8,1.6
        s-0.7,1.9-3,1.9v1c2.5,0,3.3,0.9,3.3,2.1s-0.9,1.9-2.2,1.9c-1.2,0-2.1-0.6-2.7-1.2L23.1,24z M14.6,25.3h6.7v-1.2h-3
        c-0.6,0-1.2,0-1.8,0.1c2.5-2.5,4.3-4.4,4.3-6.5c0-1.8-1.2-3.1-3.1-3.1c-1.3,0-2.2,0.6-3.1,1.6l0.7,0.7c0.6-0.7,1.3-1.2,2.2-1.2
        c1.3,0,1.9,0.9,1.9,2.1c0,1.6-1.8,3.5-4.9,6.7C14.6,24.6,14.6,25.3,14.6,25.3z M6.2,25.3h5.9v-1H9.9V15h-1
        c-0.6,0.3-1.2,0.6-2.2,0.7v0.9h1.9v7.7H6.2C6.2,24.3,6.2,25.3,6.2,25.3z"/>
</svg>
