<?xml version="1.0" encoding="utf-8"?>
<!-- Generator: Adobe Illustrator 18.1.0, SVG Export Plug-In . SVG Version: 6.00 Build 0)  -->
<!DOCTYPE svg PUBLIC "-//W3C//DTD SVG 1.1//EN" "http://www.w3.org/Graphics/SVG/1.1/DTD/svg11.dtd">
<svg version="1.1" id="Ebene_1" xmlns="http://www.w3.org/2000/svg" xmlns:xlink="http://www.w3.org/1999/xlink" x="0px" y="0px" 
     viewBox="0 0 40 40" enable-background="new 0 0 40 40;" xml:space="preserve">
    <g>
        <path style="fill:none;stroke:#fff;stroke-width:2;" d="M3.1,29.9c0,0.1,0.1,0.2,0.2,0.2H37c0.1,0,0.2-0.1,0.2-0.2V9.1
            c0-0.1-0.1-0.2-0.2-0.2H3.3C3.2,8.9,3.1,9,3.1,9.1V29.9z"/>
    </g>
    <g>
        <path style="fill:#fff;" d="M26.7,21c0,3,1.8,4.7,4.2,4.7c1.1,0,2.1-0.4,2.9-1.2l-0.7-1c-0.5,0.5-1.2,0.9-2.1,0.9
            c-1.6,0-2.8-1.4-2.8-3.4c0-2.1,1.2-3.5,2.8-3.5c0.7,0,1.3,0.3,1.8,0.8l0.8-1c-0.6-0.6-1.4-1.1-2.6-1.1C28.7,16.3,26.7,18,26.7,21
             M18.5,23.5v-4.7c0.8-0.8,1.6-1.2,2.4-1.2c1.7,0,2.4,1.3,2.4,3.3c0,2.2-1.1,3.5-2.6,3.5C20.1,24.4,19.3,24.1,18.5,23.5 M17,25.4
            h1.2l0.1-0.9h0.1c0.8,0.7,1.7,1.1,2.6,1.1c2,0,3.9-1.8,3.9-4.8c0-2.8-1.2-4.5-3.5-4.5c-1,0-2,0.5-2.8,1.2l0-1.6v-3.6H17V25.4z
             M8.5,23c0-1.1,1-1.9,4-2.2v2.5c-0.9,0.8-1.6,1.2-2.4,1.2C9.1,24.4,8.5,24,8.5,23 M7,23.1c0,1.6,1.1,2.5,2.6,2.5
            c1.1,0,2.1-0.6,3-1.3h0l0.1,1.1H14V20c0-2.2-0.9-3.7-3.1-3.7c-1.4,0-2.7,0.6-3.5,1.2l0.6,1c0.7-0.5,1.6-1,2.7-1
            c1.5,0,1.8,1.1,1.8,2.2C8.7,20.2,7,21.2,7,23.1"/>
    </g>
</svg>
